<?xml version="1.0" standalone="no"?>
<!DOCTYPE svg PUBLIC "-//W3C//DTD SVG 20010904//EN"
 "http://www.w3.org/TR/2001/REC-SVG-20010904/DTD/svg10.dtd">
<svg version="1.0" xmlns="http://www.w3.org/2000/svg"
 width="1080.000000pt" height="1080.000000pt" viewBox="0 0 1080.000000 1080.000000"
 preserveAspectRatio="xMidYMid meet">
<metadata>
Created by potrace 1.14, written by Peter Selinger 2001-2017
</metadata>
<g transform="translate(0.000000,1080.000000) scale(0.100000,-0.100000)"
fill="#000000" stroke="none">
<path d="M6135 9249 c-239 -25 -462 -99 -675 -224 -100 -59 -272 -197 -353
-285 -64 -69 -66 -73 -48 -89 10 -9 31 -54 46 -101 80 -253 260 -420 535 -496
99 -28 381 -26 465 3 86 30 148 55 248 102 168 78 230 95 347 95 76 0 117 -5
149 -17 127 -51 530 -82 763 -58 130 13 296 71 488 169 69 36 147 72 175 82
l50 17 -30 15 c-51 27 -234 67 -360 79 -67 7 -184 9 -267 7 l-147 -6 -41 70
c-75 126 -229 292 -350 378 -73 52 -86 59 -101 48 -12 -8 -12 -9 1 -5 8 2 42
-14 75 -36 65 -44 235 -204 235 -221 0 -6 14 -22 30 -36 17 -14 30 -30 30 -37
0 -7 14 -27 30 -45 23 -23 28 -34 19 -42 -8 -8 -13 -7 -16 2 -3 6 -9 10 -14 6
-5 -3 -8 -2 -7 3 5 19 -15 54 -27 49 -9 -3 -12 0 -8 10 3 10 0 12 -10 8 -12
-4 -15 0 -11 18 2 13 2 17 -2 11 -8 -18 -25 -16 -18 2 9 23 -167 207 -187 195
-8 -6 -6 -9 7 -13 16 -4 16 -5 -3 -6 -24 -1 -31 13 -13 24 6 4 -6 19 -27 36
-21 16 -43 33 -50 39 -7 5 -16 10 -21 10 -9 0 -52 46 -52 56 0 4 7 1 15 -6 9
-7 18 -10 21 -7 10 10 -74 47 -93 41 -13 -4 -15 -3 -5 4 11 7 10 10 -3 16 -9
3 -22 3 -27 -1 -6 -3 -8 -2 -5 4 9 14 -41 35 -67 28 -14 -4 -17 -3 -8 3 14 9
-36 29 -163 62 -139 37 -375 54 -520 39z m985 -349 c0 -5 -5 -10 -11 -10 -5 0
-7 5 -4 10 3 6 8 10 11 10 2 0 4 -4 4 -10z m55 -20 c-3 -5 6 -12 20 -16 13 -3
23 -10 20 -14 -3 -5 1 -11 7 -13 9 -4 7 -6 -3 -6 -9 -1 -24 8 -34 19 -10 11
-21 18 -25 15 -4 -2 -7 2 -7 10 0 8 7 15 14 15 8 0 11 -4 8 -10z m5 -84 c0 -2
-7 -7 -16 -10 -8 -3 -12 -2 -9 4 6 10 25 14 25 6z m285 -185 c-3 -5 2 -17 11
-26 23 -23 11 -29 -14 -7 -16 14 -18 22 -10 30 14 14 21 16 13 3z m-2273 -148
c-6 -2 -9 -10 -6 -15 4 -7 2 -8 -5 -4 -13 9 -5 26 12 25 9 0 8 -2 -1 -6z m171
-198 c-3 -9 -8 -14 -10 -11 -3 3 -2 9 2 15 9 16 15 13 8 -4z"/>
<path d="M6704 8134 c-78 -38 -125 -128 -110 -209 11 -55 77 -120 132 -129 89
-15 180 43 203 131 20 73 -27 166 -101 202 -52 25 -82 26 -124 5z"/>
<path d="M2060 7973 c-8 -3 -25 -15 -37 -26 -43 -39 -33 -71 108 -344 71 -140
140 -271 151 -291 11 -20 38 -68 58 -107 21 -38 62 -113 92 -165 31 -52 64
-111 74 -130 10 -19 21 -37 25 -40 3 -3 31 -52 63 -109 32 -58 65 -115 74
-129 16 -24 15 -24 -44 6 -79 40 -225 154 -298 233 -74 80 -133 169 -203 311
-60 121 -89 158 -126 158 -41 0 -61 -32 -54 -89 3 -27 10 -58 15 -68 5 -10 35
-70 66 -134 150 -304 391 -517 746 -660 116 -46 180 -47 221 -1 37 41 36 61
-2 98 -17 16 -81 119 -143 229 -162 287 -195 346 -260 475 -32 63 -115 223
-184 355 -69 131 -142 276 -163 321 -21 45 -48 89 -61 98 -22 15 -87 20 -118
9z"/>
<path d="M4535 7652 c-177 -102 -491 -404 -771 -742 -140 -169 -250 -307 -283
-357 -19 -28 -47 -58 -63 -68 -16 -9 -38 -37 -50 -63 -28 -62 -46 -82 -74 -82
-29 0 -94 -56 -94 -81 0 -12 -10 -21 -27 -25 -107 -27 -150 -113 -77 -156 l35
-21 -28 -18 c-15 -10 -35 -23 -43 -28 -8 -6 -98 -61 -200 -122 -102 -62 -270
-169 -375 -238 -104 -69 -198 -130 -208 -136 -9 -5 -110 -73 -224 -150 -243
-164 -403 -282 -403 -296 0 -31 162 -157 211 -164 22 -3 27 -2 14 3 -41 16
-75 35 -75 44 0 4 -23 24 -50 44 -27 20 -50 41 -49 47 0 8 3 7 6 -1 4 -10 9
-10 23 3 12 11 20 13 25 5 3 -5 11 -7 17 -4 6 4 8 2 5 -4 -4 -5 -17 -8 -29 -4
-19 5 -18 1 10 -26 18 -18 38 -32 45 -32 7 0 18 -5 25 -12 9 -9 12 -9 12 0 0
6 -8 15 -17 21 -16 9 -16 10 4 8 12 0 20 -4 17 -8 -9 -15 17 -20 33 -7 15 11
16 11 10 -4 -3 -10 -2 -18 3 -18 6 0 10 13 10 29 0 26 3 29 28 27 15 -2 32 -4
37 -6 16 -6 65 22 58 33 -3 6 -1 7 5 3 10 -6 133 69 140 86 2 5 22 17 45 28
45 22 58 29 126 74 24 16 41 23 36 15 -4 -8 3 -3 16 11 26 27 46 40 99 67 19
10 45 28 58 40 13 13 27 23 33 23 5 0 19 8 30 18 10 11 32 25 47 33 15 8 33
20 40 27 7 6 19 12 27 12 7 0 15 4 17 8 7 17 144 98 158 94 8 -3 11 -1 7 4
-11 11 87 71 133 80 7 2 23 13 33 26 10 13 15 16 11 8 -4 -8 5 -2 20 13 15 16
33 26 41 24 7 -3 16 1 19 9 3 9 10 13 15 10 5 -3 11 0 14 8 3 8 19 21 36 29
20 10 29 11 25 4 -3 -7 4 -2 15 11 23 27 87 72 101 72 6 0 10 5 10 10 0 6 7
10 15 10 18 0 19 11 3 30 -11 12 -10 12 4 1 13 -10 18 -9 25 2 23 40 68 42
278 12 672 -97 1257 -84 1650 35 316 95 518 228 648 426 208 314 63 693 -300
789 -109 29 -204 30 -363 1 -164 -30 -243 -32 -351 -11 -251 48 -383 173 -408
385 -5 46 -7 88 -5 92 8 13 -9 9 -41 -10z m105 -354 c0 -6 -3 -8 -7 -5 -3 4
-13 1 -22 -6 -14 -11 -14 -10 -2 6 15 20 31 22 31 5z m25 -8 c-4 -6 8 -24 25
-40 18 -17 27 -30 22 -30 -13 0 -62 47 -62 59 0 8 11 21 17 21 2 0 1 -5 -2
-10z m65 -90 c0 -5 -2 -10 -4 -10 -3 0 -8 5 -11 10 -3 6 -1 10 4 10 6 0 11 -4
11 -10z m185 -618 c-3 -3 -11 0 -18 7 -9 10 -8 11 6 5 10 -3 15 -9 12 -12z
m-135 -2 c0 -5 -19 -9 -42 -9 l-43 2 40 7 c22 4 41 8 43 9 1 0 2 -3 2 -9z
m-255 -22 c6 -4 -19 -7 -55 -6 -56 1 -58 2 -17 5 26 2 47 9 47 15 0 7 3 7 8 2
4 -5 12 -12 17 -16z m143 5 c-10 -2 -28 -2 -40 0 -13 2 -5 4 17 4 22 1 32 -1
23 -4z m-320 -17 c3 -4 -21 -6 -54 -6 -32 0 -77 -3 -99 -6 -28 -4 -36 -3 -26
4 8 6 20 8 28 5 7 -3 13 -1 13 4 0 10 128 8 138 -1z m-593 -16 c3 -5 1 -10 -4
-10 -6 0 -11 5 -11 10 0 6 2 10 4 10 3 0 8 -4 11 -10z m780 -270 c4 -6 -6 -10
-22 -9 -25 0 -26 1 -8 9 11 5 21 9 22 9 1 1 5 -3 8 -9z m-67 -7 c-10 -2 -26
-2 -35 0 -10 3 -2 5 17 5 19 0 27 -2 18 -5z m125 0 c-7 -2 -21 -2 -30 0 -10 3
-4 5 12 5 17 0 24 -2 18 -5z m-2628 -1181 c-3 -3 -11 0 -18 7 -9 10 -8 11 6 5
10 -3 15 -9 12 -12z m-168 -24 c-3 -8 -6 -5 -6 6 -1 11 2 17 5 13 3 -3 4 -12
1 -19z"/>
<path d="M3445 5890 c-3 -5 -2 -10 4 -10 5 0 13 5 16 10 3 6 2 10 -4 10 -5 0
-13 -4 -16 -10z"/>
<path d="M8365 5870 c-3 -6 1 -7 9 -4 18 7 21 14 7 14 -6 0 -13 -4 -16 -10z"/>
<path d="M3323 5819 c-29 -17 -53 -33 -53 -36 0 -5 89 44 105 58 16 16 1 9
-52 -22z"/>
<path d="M3223 5764 c0 -16 13 -19 21 -5 3 5 0 11 -7 14 -8 3 -14 -1 -14 -9z"/>
<path d="M3180 5730 c-9 -6 -10 -10 -3 -10 6 0 15 5 18 10 8 12 4 12 -15 0z"/>
<path d="M8080 5720 c-9 -6 -10 -10 -3 -10 6 0 15 5 18 10 8 12 4 12 -15 0z"/>
<path d="M3127 5701 c-34 -22 -43 -31 -31 -31 5 0 23 11 39 25 35 28 32 31 -8
6z"/>
<path d="M8030 5690 c-9 -6 -10 -10 -3 -10 6 0 15 5 18 10 8 12 4 12 -15 0z"/>
<path d="M3045 5650 c-3 -6 1 -7 9 -4 18 7 21 14 7 14 -6 0 -13 -4 -16 -10z"/>
<path d="M2976 5605 c-11 -8 -15 -15 -9 -15 6 0 16 7 23 15 16 19 11 19 -14 0z"/>
<path d="M2909 5563 c-13 -17 -13 -17 6 -3 11 8 22 16 24 17 2 2 0 3 -6 3 -6
0 -17 -8 -24 -17z"/>
<path d="M7535 5410 c-3 -5 -2 -10 4 -10 5 0 13 5 16 10 3 6 2 10 -4 10 -5 0
-13 -4 -16 -10z"/>
<path d="M2633 5389 c-35 -22 -46 -37 -15 -20 22 13 58 40 52 41 -3 0 -20 -10
-37 -21z"/>
<path d="M7465 5370 c-3 -6 1 -7 9 -4 18 7 21 14 7 14 -6 0 -13 -4 -16 -10z"/>
<path d="M2524 5314 c-18 -14 -18 -15 4 -4 12 6 22 13 22 15 0 8 -5 6 -26 -11z"/>
<path d="M7340 5300 c-9 -6 -10 -10 -3 -10 6 0 15 5 18 10 8 12 4 12 -15 0z"/>
<path d="M2444 5265 c-10 -8 -14 -15 -8 -15 6 0 17 7 24 15 16 19 9 19 -16 0z"/>
<path d="M7280 5270 c-9 -6 -10 -10 -3 -10 6 0 15 5 18 10 8 12 4 12 -15 0z"/>
<path d="M7235 5250 c-3 -6 1 -7 9 -4 18 7 21 14 7 14 -6 0 -13 -4 -16 -10z"/>
<path d="M7195 5230 c-3 -6 1 -7 9 -4 18 7 21 14 7 14 -6 0 -13 -4 -16 -10z"/>
<path d="M2263 5152 c-65 -43 -111 -78 -73 -57 71 41 166 108 148 105 -2 -1
-35 -22 -75 -48z"/>
<path d="M7080 5170 c-9 -6 -10 -10 -3 -10 6 0 15 5 18 10 8 12 4 12 -15 0z"/>
<path d="M7030 5150 c-8 -5 -10 -10 -5 -10 6 0 17 5 25 10 8 5 11 10 5 10 -5
0 -17 -5 -25 -10z"/>
<path d="M2135 5064 l-30 -26 33 22 c17 12 32 23 32 26 0 7 -4 5 -35 -22z"/>
<path d="M6835 5060 c-3 -6 1 -7 9 -4 18 7 21 14 7 14 -6 0 -13 -4 -16 -10z"/>
<path d="M6790 5040 c-9 -6 -10 -10 -3 -10 6 0 15 5 18 10 8 12 4 12 -15 0z"/>
<path d="M2027 4995 c-37 -25 -67 -48 -67 -50 0 -3 32 16 70 41 61 41 77 54
67 54 -1 0 -33 -20 -70 -45z"/>
<path d="M6736 5011 c-3 -5 3 -11 15 -14 16 -4 18 -3 8 9 -13 16 -16 17 -23 5z"/>
<path d="M1916 5002 c-2 -4 4 -8 14 -8 10 0 16 4 14 8 -3 4 -9 8 -14 8 -5 0
-11 -4 -14 -8z"/>
<path d="M1924 4925 c-10 -8 -14 -15 -8 -15 6 0 17 7 24 15 16 19 9 19 -16 0z"/>
<path d="M6285 4820 c-13 -5 -14 -9 -5 -9 8 0 24 4 35 9 13 5 14 9 5 9 -8 0
-24 -4 -35 -9z"/>
<path d="M7423 4805 c-34 -14 -53 -44 -74 -114 -8 -26 -21 -46 -33 -51 -16 -7
-17 -9 -4 -9 9 -1 19 -10 23 -20 3 -11 20 -32 38 -48 47 -41 68 -82 122 -242
52 -152 81 -201 121 -201 25 0 64 31 64 52 0 6 -38 90 -86 186 -47 95 -84 177
-82 182 6 16 174 -37 388 -122 332 -132 412 -155 476 -134 26 8 64 67 64 99 0
75 -53 131 -171 179 -281 116 -463 179 -582 203 -45 9 -108 25 -139 36 -67 22
-82 23 -125 4z"/>
<path d="M6100 4754 c-14 -8 -18 -14 -10 -13 8 0 26 6 40 14 14 8 18 14 10 14
-8 -1 -26 -7 -40 -15z"/>
<path d="M6030 4731 c-8 -5 -26 -13 -40 -19 -14 -5 -38 -16 -55 -23 -16 -7
-39 -16 -50 -20 -16 -6 -17 -7 -3 -8 10 -1 43 10 74 24 31 14 62 25 68 25 6 0
20 7 30 15 22 16 3 20 -24 6z"/>
<path d="M7230 4610 c-8 -5 -10 -10 -5 -10 6 0 17 5 25 10 8 5 11 10 5 10 -5
0 -17 -5 -25 -10z"/>
<path d="M3530 4554 c-57 -25 -110 -83 -110 -121 0 -43 26 -56 155 -77 178
-30 335 -94 458 -187 79 -60 273 -238 270 -248 -1 -4 6 -7 15 -8 68 -6 84 -4
105 10 14 9 28 28 31 44 4 15 17 36 29 46 l22 18 -22 -10 c-12 -6 -28 -11 -37
-11 -8 0 -66 60 -129 133 -135 157 -209 227 -307 291 -172 114 -377 165 -480
120z"/>
<path d="M5295 4400 c-3 -6 1 -7 9 -4 18 7 21 14 7 14 -6 0 -13 -4 -16 -10z"/>
<path d="M5915 4380 c10 -11 20 -20 23 -20 3 0 -3 9 -13 20 -10 11 -20 20 -23
20 -3 0 3 -9 13 -20z"/>
<path d="M6313 4240 c-79 -4 -106 -9 -120 -22 -16 -17 -16 -20 0 -53 21 -45
21 -44 -5 -54 -15 -6 -4 -7 34 -4 57 6 58 6 195 -75 254 -148 587 -302 656
-302 32 0 84 35 108 72 22 35 21 91 -2 141 -13 28 -76 61 -279 147 -69 28
-138 58 -155 65 -47 20 -195 63 -266 77 -39 8 -103 11 -166 8z"/>
<path d="M5754 4158 c-4 -7 -14 -24 -22 -38 -14 -24 -13 -24 3 -5 20 24 37 55
31 55 -3 0 -8 -6 -12 -12z"/>
<path d="M6138 4093 c7 -3 16 -2 19 1 4 3 -2 6 -13 5 -11 0 -14 -3 -6 -6z"/>
<path d="M5835 3976 c-22 -6 -55 -19 -73 -29 l-33 -18 48 -38 c26 -21 73 -65
104 -98 68 -74 224 -315 309 -478 34 -66 74 -139 89 -162 52 -85 159 -106 199
-41 16 27 15 30 -32 125 -59 121 -112 209 -235 387 -108 158 -174 233 -258
297 -32 23 -62 48 -68 54 -7 8 -21 8 -50 1z"/>
<path d="M3169 3934 c-59 -18 -140 -73 -156 -105 -16 -34 -6 -67 26 -84 22
-11 48 -12 131 -5 149 13 288 -8 410 -62 97 -44 231 -129 223 -142 -4 -6 24
19 62 57 38 37 76 67 84 67 24 0 -94 105 -176 156 -88 55 -226 111 -307 124
-87 14 -243 11 -297 -6z"/>
<path d="M4998 3493 c-27 -27 -48 -52 -48 -55 0 -4 20 -21 44 -39 25 -17 50
-45 56 -63 21 -56 24 -242 6 -337 -30 -161 -17 -222 50 -235 38 -7 76 12 94
47 26 48 29 307 5 448 -8 42 -7 43 16 36 13 -4 71 -30 129 -57 186 -88 209
-91 255 -36 57 68 15 120 -176 214 -139 69 -259 112 -334 120 -49 6 -51 5 -97
-43z"/>
<path d="M2635 1530 c11 -5 29 -8 40 -8 16 0 15 2 -5 8 -34 11 -60 11 -35 0z"/>
<path d="M2718 1513 c7 -3 16 -2 19 1 4 3 -2 6 -13 5 -11 0 -14 -3 -6 -6z"/>
</g>
</svg>
